<svg width="27" height="27" viewBox="0 0 27 27" fill="none" xmlns="http://www.w3.org/2000/svg">
<path d="M13.5 1C15.9252 0.999558 18.2981 1.7046 20.3296 3.0292C22.3611 4.35379 23.9634 6.24073 24.9412 8.46005C25.919 10.6794 26.2301 13.1352 25.8366 15.5282C25.4431 17.9213 24.362 20.1482 22.725 21.9375M13.5 8.5V18.5M18.5 13.5H8.5M1.625 9.59375C1.22669 10.8046 1.01592 12.0692 1 13.3438M2.0375 18.5C2.73938 20.1148 3.77448 21.5631 5.075 22.75M4.295 5.04375C4.6438 4.66404 5.01576 4.30627 5.40875 3.9725M9.305 25.275C12.4221 26.3855 15.8524 26.2146 18.8438 24.8" stroke="white" stroke-width="2" stroke-linecap="round" stroke-linejoin="round"/>
</svg>
