<svg width="22" height="22" viewBox="0 0 22 22" fill="none" xmlns="http://www.w3.org/2000/svg">
<path d="M20 13H18.657M8.128 2.47C9.48174 2.01417 10.9245 1.88712 12.3371 2.09934C13.7497 2.31156 15.0915 2.85695 16.2515 3.69044C17.4115 4.52393 18.3565 5.62157 19.0084 6.8926C19.6602 8.16364 20.0001 9.57157 20 11V14.343M1 1L21 21M19.414 19.414C19.039 19.7891 18.5304 19.9999 18 20H17C16.4696 20 15.9609 19.7893 15.5858 19.4142C15.2107 19.0391 15 18.5304 15 18V15M2 13H5C5.53043 13 6.03914 13.2107 6.41421 13.5858C6.78929 13.9609 7 14.4696 7 15V18C7 18.5304 6.78929 19.0391 6.41421 19.4142C6.03914 19.7893 5.53043 20 5 20H4C3.46957 20 2.96086 19.7893 2.58579 19.4142C2.21071 19.0391 2 18.5304 2 18V11C1.99999 9.8181 2.23277 8.64777 2.68506 7.55583C3.13734 6.4639 3.80028 5.47174 4.636 4.636" stroke="white" stroke-width="2" stroke-linecap="round" stroke-linejoin="round"/>
</svg>
