<svg width="26" height="24" viewBox="0 0 26 24" fill="none" xmlns="http://www.w3.org/2000/svg">
<path d="M20.2 23C20.2 20.4068 19.1886 17.9198 17.3882 16.0861C15.5879 14.2524 13.1461 13.2222 10.6 13.2222M10.6 13.2222C8.05392 13.2222 5.61212 14.2524 3.81178 16.0861C2.01143 17.9198 1 20.4068 1 23M10.6 13.2222C13.9137 13.2222 16.6 10.4862 16.6 7.11111C16.6 3.73604 13.9137 1 10.6 1C7.28629 1 4.6 3.73604 4.6 7.11111C4.6 10.4862 7.28629 13.2222 10.6 13.2222ZM25 21.7778C25 17.6589 22.6 13.8333 20.2 12C20.9889 11.3972 21.6197 10.6055 22.0367 9.69522C22.4536 8.78488 22.6438 7.78391 22.5904 6.78087C22.537 5.77783 22.2417 4.80366 21.7306 3.94458C21.2194 3.08549 20.5083 2.36799 19.66 1.85556" stroke="white" stroke-width="2" stroke-linecap="round" stroke-linejoin="round"/>
</svg>
