<svg width="20" height="27" viewBox="0 0 20 27" fill="none" xmlns="http://www.w3.org/2000/svg">
<path d="M9.75 19.75V26M6 11.95C5.99975 12.4151 5.86976 12.8709 5.62465 13.2662C5.37954 13.6615 5.02902 13.9805 4.6125 14.1875L2.3875 15.3125C1.97098 15.5195 1.62046 15.8385 1.37535 16.2338C1.13024 16.6291 1.00025 17.0849 1 17.55V18.5C1 18.8315 1.1317 19.1495 1.36612 19.3839C1.60054 19.6183 1.91848 19.75 2.25 19.75H17.25C17.5815 19.75 17.8995 19.6183 18.1339 19.3839C18.3683 19.1495 18.5 18.8315 18.5 18.5V17.55C18.4998 17.0849 18.3698 16.6291 18.1247 16.2338C17.8795 15.8385 17.529 15.5195 17.1125 15.3125L14.8875 14.1875C14.471 13.9805 14.1205 13.6615 13.8753 13.2662C13.6302 12.8709 13.5002 12.4151 13.5 11.95V7.25C13.5 6.91848 13.6317 6.60054 13.8661 6.36612C14.1005 6.1317 14.4185 6 14.75 6C15.413 6 16.0489 5.73661 16.5178 5.26777C16.9866 4.79893 17.25 4.16304 17.25 3.5C17.25 2.83696 16.9866 2.20107 16.5178 1.73223C16.0489 1.26339 15.413 1 14.75 1H4.75C4.08696 1 3.45107 1.26339 2.98223 1.73223C2.51339 2.20107 2.25 2.83696 2.25 3.5C2.25 4.16304 2.51339 4.79893 2.98223 5.26777C3.45107 5.73661 4.08696 6 4.75 6C5.08152 6 5.39946 6.1317 5.63388 6.36612C5.8683 6.60054 6 6.91848 6 7.25V11.95Z" stroke="white" stroke-width="2" stroke-linecap="round" stroke-linejoin="round"/>
</svg>
