<svg width="26" height="26" viewBox="0 0 26 26" fill="none" xmlns="http://www.w3.org/2000/svg">
<path d="M13.6629 1H3.30235C2.69173 1 2.10612 1.26952 1.67434 1.74927C1.24257 2.22902 1 2.8797 1 3.55817V16.349C1 17.0275 1.24257 17.6782 1.67434 18.1579C2.10612 18.6376 2.69173 18.9072 3.30235 18.9072H21.7212C22.3318 18.9072 22.9174 18.6376 23.3492 18.1579C23.7809 17.6782 24.0235 17.0275 24.0235 16.349V12.5118M7.90705 24.0235H17.1165M12.5118 18.9072V24.0235M18.2676 7.39542L24.0235 1M24.0235 1H18.2676M24.0235 1V7.39542" stroke="white" stroke-width="2" stroke-linecap="round" stroke-linejoin="round"/>
</svg>
