<svg width="26" height="25" viewBox="0 0 26 25" fill="none" xmlns="http://www.w3.org/2000/svg">
<path d="M24.7534 12.2531C24.7534 12.3715 24.7197 12.4875 24.6564 12.5875C24.5931 12.6875 24.5026 12.7675 24.3956 12.8181L1.89558 23.4431C1.7832 23.4976 1.65703 23.517 1.53347 23.4988C1.40991 23.4807 1.29467 23.4257 1.20273 23.3412C1.11079 23.2567 1.0464 23.1465 1.01793 23.0249C0.989459 22.9033 0.998223 22.7759 1.04308 22.6593L4.59558 13.1256C4.80517 12.5628 4.80517 11.9434 4.59558 11.3806L1.04183 1.84685C0.996745 1.73015 0.987866 1.60258 1.01635 1.48076C1.04484 1.35894 1.10937 1.24853 1.20153 1.16393C1.29369 1.07933 1.4092 1.02445 1.533 1.00647C1.65681 0.988481 1.78316 1.00822 1.89558 1.0631L24.3956 11.6881C24.5026 11.7387 24.5931 11.8187 24.6564 11.9187C24.7197 12.0187 24.7534 12.1347 24.7534 12.2531ZM24.7534 12.2531H4.75308" stroke="white" stroke-width="2" stroke-linecap="round" stroke-linejoin="round"/>
</svg>
