<svg width="22" height="22" viewBox="0 0 22 22" fill="none" xmlns="http://www.w3.org/2000/svg">
<path d="M1 13.2222H4.33333C4.9227 13.2222 5.48793 13.4563 5.90468 13.8731C6.32143 14.2898 6.55556 14.8551 6.55556 15.4444V18.7778C6.55556 19.3671 6.32143 19.9324 5.90468 20.3491C5.48793 20.7659 4.9227 21 4.33333 21H3.22222C2.63285 21 2.06762 20.7659 1.65087 20.3491C1.23413 19.9324 1 19.3671 1 18.7778V11C1 8.34784 2.05357 5.8043 3.92893 3.92893C5.8043 2.05357 8.34784 1 11 1C13.6522 1 16.1957 2.05357 18.0711 3.92893C19.9464 5.8043 21 8.34784 21 11V18.7778C21 19.3671 20.7659 19.9324 20.3491 20.3491C19.9324 20.7659 19.3671 21 18.7778 21H17.6667C17.0773 21 16.5121 20.7659 16.0953 20.3491C15.6786 19.9324 15.4444 19.3671 15.4444 18.7778V15.4444C15.4444 14.8551 15.6786 14.2898 16.0953 13.8731C16.5121 13.4563 17.0773 13.2222 17.6667 13.2222H21" stroke="white" stroke-width="2" stroke-linecap="round" stroke-linejoin="round"/>
</svg>
