<svg width="33" height="24" viewBox="0 0 33 24" fill="none" xmlns="http://www.w3.org/2000/svg">
<path d="M22.0215 13.2625L29.864 19.3622C29.977 19.45 30.1084 19.5004 30.244 19.5079C30.3797 19.5155 30.5145 19.48 30.6343 19.4052C30.754 19.3305 30.8541 19.2192 30.9239 19.0833C30.9937 18.9474 31.0306 18.7919 31.0307 18.6335V4.27584C31.0307 4.12173 30.9959 3.97033 30.9297 3.83693C30.8636 3.70353 30.7684 3.59286 30.6539 3.51609C30.5393 3.43932 30.4094 3.39917 30.2773 3.3997C30.1452 3.40022 30.0156 3.4414 29.9015 3.51907L22.0215 8.88305M4.00307 1H19.0184C20.6769 1 22.0215 2.5686 22.0215 4.50358V18.5179C22.0215 20.4529 20.6769 22.0215 19.0184 22.0215H4.00307C2.34452 22.0215 1 20.4529 1 18.5179V4.50358C1 2.5686 2.34452 1 4.00307 1Z" stroke="white" stroke-width="2" stroke-linecap="round" stroke-linejoin="round"/>
</svg>
